<svg xmlns="http://www.w3.org/2000/svg" version="1.1" xmlns:xlink="http://www.w3.org/1999/xlink" xmlns:svgjs="http://svgjs.dev/svgjs" width="1920" height="1080" preserveAspectRatio="none" viewBox="0 0 1920 1080"><g mask="url(&quot;#SvgjsMask2458&quot;)" fill="none"><rect width="1920" height="1080" x="0" y="0" fill="url(&quot;#SvgjsRadialGradient2459&quot;)"></rect><path d="M119.18 111.61L184.14 149.11L184.14 224.11L119.18 261.61L54.23 224.11L54.23 149.11zM119.18 561.61L184.14 599.11L184.14 674.11L119.18 711.61L54.23 674.11L54.23 599.11zM54.23 674.11L119.18 711.61L119.18 786.61L54.23 824.11L-10.72 786.61L-10.72 711.61zM249.09 561.61L314.05 599.11L314.05 674.11L249.09 711.61L184.14 674.11L184.14 599.11zM314.05 224.11L379 261.61L379 336.61L314.05 374.11L249.09 336.61L249.09 261.61zM314.05 449.11L379 486.61L379 561.61L314.05 599.11L249.09 561.61L249.09 486.61zM443.95 224.11L508.91 261.61L508.91 336.61L443.95 374.11L379 336.61L379 261.61zM508.91 336.61L573.86 374.11L573.86 449.11L508.91 486.61L443.95 449.11L443.95 374.11zM638.81 336.61L703.77 374.11L703.77 449.11L638.81 486.61L573.86 449.11L573.86 374.11zM573.86 899.11L638.81 936.61L638.81 1011.61L573.86 1049.11L508.91 1011.61L508.91 936.61zM703.77 449.11L768.72 486.61L768.72 561.61L703.77 599.11L638.81 561.61L638.81 486.61zM898.63 111.61L963.58 149.11L963.58 224.11L898.63 261.61L833.67 224.11L833.67 149.11zM833.67 899.11L898.63 936.61L898.63 1011.61L833.67 1049.11L768.72 1011.61L768.72 936.61zM898.63 1011.61L963.58 1049.11L963.58 1124.11L898.63 1161.61L833.67 1124.11L833.67 1049.11zM833.67 1124.11L898.63 1161.61L898.63 1236.61L833.67 1274.11L768.72 1236.61L768.72 1161.61zM963.58 224.11L1028.54 261.61L1028.54 336.61L963.58 374.11L898.63 336.61L898.63 261.61zM1028.54 336.61L1093.49 374.11L1093.49 449.11L1028.54 486.61L963.58 449.11L963.58 374.11zM1093.49 224.11L1158.44 261.61L1158.44 336.61L1093.49 374.11L1028.54 336.61L1028.54 261.61zM1093.49 674.11L1158.44 711.61L1158.44 786.61L1093.49 824.11L1028.54 786.61L1028.54 711.61zM1223.4 449.11L1288.35 486.61L1288.35 561.61L1223.4 599.11L1158.44 561.61L1158.44 486.61zM1223.4 674.11L1288.35 711.61L1288.35 786.61L1223.4 824.11L1158.44 786.61L1158.44 711.61zM1418.26 111.61L1483.21 149.11L1483.21 224.11L1418.26 261.61L1353.31 224.11L1353.31 149.11zM1353.31 224.11L1418.26 261.61L1418.26 336.61L1353.31 374.11L1288.35 336.61L1288.35 261.61zM1418.26 336.61L1483.21 374.11L1483.21 449.11L1418.26 486.61L1353.31 449.11L1353.31 374.11zM1353.31 1124.11L1418.26 1161.61L1418.26 1236.61L1353.31 1274.11L1288.35 1236.61L1288.35 1161.61zM1678.07 111.61L1743.03 149.11L1743.03 224.11L1678.07 261.61L1613.12 224.11L1613.12 149.11zM1613.12 674.11L1678.07 711.61L1678.07 786.61L1613.12 824.11L1548.17 786.61L1548.17 711.61zM1678.07 786.61L1743.03 824.11L1743.03 899.11L1678.07 936.61L1613.12 899.11L1613.12 824.11zM1743.03 224.11L1807.98 261.61L1807.98 336.61L1743.03 374.11L1678.07 336.61L1678.07 261.61zM1807.98 336.61L1872.93 374.11L1872.93 449.11L1807.98 486.61L1743.03 449.11L1743.03 374.11zM1743.03 449.11L1807.98 486.61L1807.98 561.61L1743.03 599.11L1678.07 561.61L1678.07 486.61z" stroke="rgba(203, 47, 47, 1)" stroke-width="2"></path><path d="M111.68 111.61 a7.5 7.5 0 1 0 15 0 a7.5 7.5 0 1 0 -15 0zM176.64 149.11 a7.5 7.5 0 1 0 15 0 a7.5 7.5 0 1 0 -15 0zM176.64 224.11 a7.5 7.5 0 1 0 15 0 a7.5 7.5 0 1 0 -15 0zM111.68 261.61 a7.5 7.5 0 1 0 15 0 a7.5 7.5 0 1 0 -15 0zM46.73 224.11 a7.5 7.5 0 1 0 15 0 a7.5 7.5 0 1 0 -15 0zM46.73 149.11 a7.5 7.5 0 1 0 15 0 a7.5 7.5 0 1 0 -15 0zM111.68 561.61 a7.5 7.5 0 1 0 15 0 a7.5 7.5 0 1 0 -15 0zM176.64 599.11 a7.5 7.5 0 1 0 15 0 a7.5 7.5 0 1 0 -15 0zM176.64 674.11 a7.5 7.5 0 1 0 15 0 a7.5 7.5 0 1 0 -15 0zM111.68 711.61 a7.5 7.5 0 1 0 15 0 a7.5 7.5 0 1 0 -15 0zM46.73 674.11 a7.5 7.5 0 1 0 15 0 a7.5 7.5 0 1 0 -15 0zM46.73 599.11 a7.5 7.5 0 1 0 15 0 a7.5 7.5 0 1 0 -15 0zM111.68 786.61 a7.5 7.5 0 1 0 15 0 a7.5 7.5 0 1 0 -15 0zM46.73 824.11 a7.5 7.5 0 1 0 15 0 a7.5 7.5 0 1 0 -15 0zM-18.22 786.61 a7.5 7.5 0 1 0 15 0 a7.5 7.5 0 1 0 -15 0zM-18.22 711.61 a7.5 7.5 0 1 0 15 0 a7.5 7.5 0 1 0 -15 0zM241.59 561.61 a7.5 7.5 0 1 0 15 0 a7.5 7.5 0 1 0 -15 0zM306.55 599.11 a7.5 7.5 0 1 0 15 0 a7.5 7.5 0 1 0 -15 0zM306.55 674.11 a7.5 7.5 0 1 0 15 0 a7.5 7.5 0 1 0 -15 0zM241.59 711.61 a7.5 7.5 0 1 0 15 0 a7.5 7.5 0 1 0 -15 0zM306.55 224.11 a7.5 7.5 0 1 0 15 0 a7.5 7.5 0 1 0 -15 0zM371.5 261.61 a7.5 7.5 0 1 0 15 0 a7.5 7.5 0 1 0 -15 0zM371.5 336.61 a7.5 7.5 0 1 0 15 0 a7.5 7.5 0 1 0 -15 0zM306.55 374.11 a7.5 7.5 0 1 0 15 0 a7.5 7.5 0 1 0 -15 0zM241.59 336.61 a7.5 7.5 0 1 0 15 0 a7.5 7.5 0 1 0 -15 0zM241.59 261.61 a7.5 7.5 0 1 0 15 0 a7.5 7.5 0 1 0 -15 0zM306.55 449.11 a7.5 7.5 0 1 0 15 0 a7.5 7.5 0 1 0 -15 0zM371.5 486.61 a7.5 7.5 0 1 0 15 0 a7.5 7.5 0 1 0 -15 0zM371.5 561.61 a7.5 7.5 0 1 0 15 0 a7.5 7.5 0 1 0 -15 0zM241.59 486.61 a7.5 7.5 0 1 0 15 0 a7.5 7.5 0 1 0 -15 0zM436.45 224.11 a7.5 7.5 0 1 0 15 0 a7.5 7.5 0 1 0 -15 0zM501.41 261.61 a7.5 7.5 0 1 0 15 0 a7.5 7.5 0 1 0 -15 0zM501.41 336.61 a7.5 7.5 0 1 0 15 0 a7.5 7.5 0 1 0 -15 0zM436.45 374.11 a7.5 7.5 0 1 0 15 0 a7.5 7.5 0 1 0 -15 0zM566.36 374.11 a7.5 7.5 0 1 0 15 0 a7.5 7.5 0 1 0 -15 0zM566.36 449.11 a7.5 7.5 0 1 0 15 0 a7.5 7.5 0 1 0 -15 0zM501.41 486.61 a7.5 7.5 0 1 0 15 0 a7.5 7.5 0 1 0 -15 0zM436.45 449.11 a7.5 7.5 0 1 0 15 0 a7.5 7.5 0 1 0 -15 0zM631.31 336.61 a7.5 7.5 0 1 0 15 0 a7.5 7.5 0 1 0 -15 0zM696.27 374.11 a7.5 7.5 0 1 0 15 0 a7.5 7.5 0 1 0 -15 0zM696.27 449.11 a7.5 7.5 0 1 0 15 0 a7.5 7.5 0 1 0 -15 0zM631.31 486.61 a7.5 7.5 0 1 0 15 0 a7.5 7.5 0 1 0 -15 0zM566.36 899.11 a7.5 7.5 0 1 0 15 0 a7.5 7.5 0 1 0 -15 0zM631.31 936.61 a7.5 7.5 0 1 0 15 0 a7.5 7.5 0 1 0 -15 0zM631.31 1011.61 a7.5 7.5 0 1 0 15 0 a7.5 7.5 0 1 0 -15 0zM566.36 1049.11 a7.5 7.5 0 1 0 15 0 a7.5 7.5 0 1 0 -15 0zM501.41 1011.61 a7.5 7.5 0 1 0 15 0 a7.5 7.5 0 1 0 -15 0zM501.41 936.61 a7.5 7.5 0 1 0 15 0 a7.5 7.5 0 1 0 -15 0zM761.22 486.61 a7.5 7.5 0 1 0 15 0 a7.5 7.5 0 1 0 -15 0zM761.22 561.61 a7.5 7.5 0 1 0 15 0 a7.5 7.5 0 1 0 -15 0zM696.27 599.11 a7.5 7.5 0 1 0 15 0 a7.5 7.5 0 1 0 -15 0zM631.31 561.61 a7.5 7.5 0 1 0 15 0 a7.5 7.5 0 1 0 -15 0zM891.13 111.61 a7.5 7.5 0 1 0 15 0 a7.5 7.5 0 1 0 -15 0zM956.08 149.11 a7.5 7.5 0 1 0 15 0 a7.5 7.5 0 1 0 -15 0zM956.08 224.11 a7.5 7.5 0 1 0 15 0 a7.5 7.5 0 1 0 -15 0zM891.13 261.61 a7.5 7.5 0 1 0 15 0 a7.5 7.5 0 1 0 -15 0zM826.17 224.11 a7.5 7.5 0 1 0 15 0 a7.5 7.5 0 1 0 -15 0zM826.17 149.11 a7.5 7.5 0 1 0 15 0 a7.5 7.5 0 1 0 -15 0zM826.17 899.11 a7.5 7.5 0 1 0 15 0 a7.5 7.5 0 1 0 -15 0zM891.13 936.61 a7.5 7.5 0 1 0 15 0 a7.5 7.5 0 1 0 -15 0zM891.13 1011.61 a7.5 7.5 0 1 0 15 0 a7.5 7.5 0 1 0 -15 0zM826.17 1049.11 a7.5 7.5 0 1 0 15 0 a7.5 7.5 0 1 0 -15 0zM761.22 1011.61 a7.5 7.5 0 1 0 15 0 a7.5 7.5 0 1 0 -15 0zM761.22 936.61 a7.5 7.5 0 1 0 15 0 a7.5 7.5 0 1 0 -15 0zM956.08 1049.11 a7.5 7.5 0 1 0 15 0 a7.5 7.5 0 1 0 -15 0zM956.08 1124.11 a7.5 7.5 0 1 0 15 0 a7.5 7.5 0 1 0 -15 0zM891.13 1161.61 a7.5 7.5 0 1 0 15 0 a7.5 7.5 0 1 0 -15 0zM826.17 1124.11 a7.5 7.5 0 1 0 15 0 a7.5 7.5 0 1 0 -15 0zM891.13 1236.61 a7.5 7.5 0 1 0 15 0 a7.5 7.5 0 1 0 -15 0zM826.17 1274.11 a7.5 7.5 0 1 0 15 0 a7.5 7.5 0 1 0 -15 0zM761.22 1236.61 a7.5 7.5 0 1 0 15 0 a7.5 7.5 0 1 0 -15 0zM761.22 1161.61 a7.5 7.5 0 1 0 15 0 a7.5 7.5 0 1 0 -15 0zM1021.04 261.61 a7.5 7.5 0 1 0 15 0 a7.5 7.5 0 1 0 -15 0zM1021.04 336.61 a7.5 7.5 0 1 0 15 0 a7.5 7.5 0 1 0 -15 0zM956.08 374.11 a7.5 7.5 0 1 0 15 0 a7.5 7.5 0 1 0 -15 0zM891.13 336.61 a7.5 7.5 0 1 0 15 0 a7.5 7.5 0 1 0 -15 0zM1085.99 374.11 a7.5 7.5 0 1 0 15 0 a7.5 7.5 0 1 0 -15 0zM1085.99 449.11 a7.5 7.5 0 1 0 15 0 a7.5 7.5 0 1 0 -15 0zM1021.04 486.61 a7.5 7.5 0 1 0 15 0 a7.5 7.5 0 1 0 -15 0zM956.08 449.11 a7.5 7.5 0 1 0 15 0 a7.5 7.5 0 1 0 -15 0zM1085.99 224.11 a7.5 7.5 0 1 0 15 0 a7.5 7.5 0 1 0 -15 0zM1150.94 261.61 a7.5 7.5 0 1 0 15 0 a7.5 7.5 0 1 0 -15 0zM1150.94 336.61 a7.5 7.5 0 1 0 15 0 a7.5 7.5 0 1 0 -15 0zM1085.99 674.11 a7.5 7.5 0 1 0 15 0 a7.5 7.5 0 1 0 -15 0zM1150.94 711.61 a7.5 7.5 0 1 0 15 0 a7.5 7.5 0 1 0 -15 0zM1150.94 786.61 a7.5 7.5 0 1 0 15 0 a7.5 7.5 0 1 0 -15 0zM1085.99 824.11 a7.5 7.5 0 1 0 15 0 a7.5 7.5 0 1 0 -15 0zM1021.04 786.61 a7.5 7.5 0 1 0 15 0 a7.5 7.5 0 1 0 -15 0zM1021.04 711.61 a7.5 7.5 0 1 0 15 0 a7.5 7.5 0 1 0 -15 0zM1215.9 449.11 a7.5 7.5 0 1 0 15 0 a7.5 7.5 0 1 0 -15 0zM1280.85 486.61 a7.5 7.5 0 1 0 15 0 a7.5 7.5 0 1 0 -15 0zM1280.85 561.61 a7.5 7.5 0 1 0 15 0 a7.5 7.5 0 1 0 -15 0zM1215.9 599.11 a7.5 7.5 0 1 0 15 0 a7.5 7.5 0 1 0 -15 0zM1150.94 561.61 a7.5 7.5 0 1 0 15 0 a7.5 7.5 0 1 0 -15 0zM1150.94 486.61 a7.5 7.5 0 1 0 15 0 a7.5 7.5 0 1 0 -15 0zM1215.9 674.11 a7.5 7.5 0 1 0 15 0 a7.5 7.5 0 1 0 -15 0zM1280.85 711.61 a7.5 7.5 0 1 0 15 0 a7.5 7.5 0 1 0 -15 0zM1280.85 786.61 a7.5 7.5 0 1 0 15 0 a7.5 7.5 0 1 0 -15 0zM1215.9 824.11 a7.5 7.5 0 1 0 15 0 a7.5 7.5 0 1 0 -15 0zM1410.76 111.61 a7.5 7.5 0 1 0 15 0 a7.5 7.5 0 1 0 -15 0zM1475.71 149.11 a7.5 7.5 0 1 0 15 0 a7.5 7.5 0 1 0 -15 0zM1475.71 224.11 a7.5 7.5 0 1 0 15 0 a7.5 7.5 0 1 0 -15 0zM1410.76 261.61 a7.5 7.5 0 1 0 15 0 a7.5 7.5 0 1 0 -15 0zM1345.81 224.11 a7.5 7.5 0 1 0 15 0 a7.5 7.5 0 1 0 -15 0zM1345.81 149.11 a7.5 7.5 0 1 0 15 0 a7.5 7.5 0 1 0 -15 0zM1410.76 336.61 a7.5 7.5 0 1 0 15 0 a7.5 7.5 0 1 0 -15 0zM1345.81 374.11 a7.5 7.5 0 1 0 15 0 a7.5 7.5 0 1 0 -15 0zM1280.85 336.61 a7.5 7.5 0 1 0 15 0 a7.5 7.5 0 1 0 -15 0zM1280.85 261.61 a7.5 7.5 0 1 0 15 0 a7.5 7.5 0 1 0 -15 0zM1475.71 374.11 a7.5 7.5 0 1 0 15 0 a7.5 7.5 0 1 0 -15 0zM1475.71 449.11 a7.5 7.5 0 1 0 15 0 a7.5 7.5 0 1 0 -15 0zM1410.76 486.61 a7.5 7.5 0 1 0 15 0 a7.5 7.5 0 1 0 -15 0zM1345.81 449.11 a7.5 7.5 0 1 0 15 0 a7.5 7.5 0 1 0 -15 0zM1345.81 1124.11 a7.5 7.5 0 1 0 15 0 a7.5 7.5 0 1 0 -15 0zM1410.76 1161.61 a7.5 7.5 0 1 0 15 0 a7.5 7.5 0 1 0 -15 0zM1410.76 1236.61 a7.5 7.5 0 1 0 15 0 a7.5 7.5 0 1 0 -15 0zM1345.81 1274.11 a7.5 7.5 0 1 0 15 0 a7.5 7.5 0 1 0 -15 0zM1280.85 1236.61 a7.5 7.5 0 1 0 15 0 a7.5 7.5 0 1 0 -15 0zM1280.85 1161.61 a7.5 7.5 0 1 0 15 0 a7.5 7.5 0 1 0 -15 0zM1670.57 111.61 a7.5 7.5 0 1 0 15 0 a7.5 7.5 0 1 0 -15 0zM1735.53 149.11 a7.5 7.5 0 1 0 15 0 a7.5 7.5 0 1 0 -15 0zM1735.53 224.11 a7.5 7.5 0 1 0 15 0 a7.5 7.5 0 1 0 -15 0zM1670.57 261.61 a7.5 7.5 0 1 0 15 0 a7.5 7.5 0 1 0 -15 0zM1605.62 224.11 a7.5 7.5 0 1 0 15 0 a7.5 7.5 0 1 0 -15 0zM1605.62 149.11 a7.5 7.5 0 1 0 15 0 a7.5 7.5 0 1 0 -15 0zM1605.62 674.11 a7.5 7.5 0 1 0 15 0 a7.5 7.5 0 1 0 -15 0zM1670.57 711.61 a7.5 7.5 0 1 0 15 0 a7.5 7.5 0 1 0 -15 0zM1670.57 786.61 a7.5 7.5 0 1 0 15 0 a7.5 7.5 0 1 0 -15 0zM1605.62 824.11 a7.5 7.5 0 1 0 15 0 a7.5 7.5 0 1 0 -15 0zM1540.67 786.61 a7.5 7.5 0 1 0 15 0 a7.5 7.5 0 1 0 -15 0zM1540.67 711.61 a7.5 7.5 0 1 0 15 0 a7.5 7.5 0 1 0 -15 0zM1735.53 824.11 a7.5 7.5 0 1 0 15 0 a7.5 7.5 0 1 0 -15 0zM1735.53 899.11 a7.5 7.5 0 1 0 15 0 a7.5 7.5 0 1 0 -15 0zM1670.57 936.61 a7.5 7.5 0 1 0 15 0 a7.5 7.5 0 1 0 -15 0zM1605.62 899.11 a7.5 7.5 0 1 0 15 0 a7.5 7.5 0 1 0 -15 0zM1800.48 261.61 a7.5 7.5 0 1 0 15 0 a7.5 7.5 0 1 0 -15 0zM1800.48 336.61 a7.5 7.5 0 1 0 15 0 a7.5 7.5 0 1 0 -15 0zM1735.53 374.11 a7.5 7.5 0 1 0 15 0 a7.5 7.5 0 1 0 -15 0zM1670.57 336.61 a7.5 7.5 0 1 0 15 0 a7.5 7.5 0 1 0 -15 0zM1865.43 374.11 a7.5 7.5 0 1 0 15 0 a7.5 7.5 0 1 0 -15 0zM1865.43 449.11 a7.5 7.5 0 1 0 15 0 a7.5 7.5 0 1 0 -15 0zM1800.48 486.61 a7.5 7.5 0 1 0 15 0 a7.5 7.5 0 1 0 -15 0zM1735.53 449.11 a7.5 7.5 0 1 0 15 0 a7.5 7.5 0 1 0 -15 0zM1800.48 561.61 a7.5 7.5 0 1 0 15 0 a7.5 7.5 0 1 0 -15 0zM1735.53 599.11 a7.5 7.5 0 1 0 15 0 a7.5 7.5 0 1 0 -15 0zM1670.57 561.61 a7.5 7.5 0 1 0 15 0 a7.5 7.5 0 1 0 -15 0zM1670.57 486.61 a7.5 7.5 0 1 0 15 0 a7.5 7.5 0 1 0 -15 0z" fill="rgba(203, 47, 47, 1)"></path><path d="M7.62 -47.71L50.92 -22.71L50.92 27.29L7.62 52.29L-35.68 27.29L-35.68 -22.71zM50.92 27.29L94.23 52.29L94.23 102.29L50.92 127.29L7.62 102.29L7.62 52.29zM50.92 177.29L94.23 202.29L94.23 252.29L50.92 277.29L7.62 252.29L7.62 202.29zM7.62 252.29L50.92 277.29L50.92 327.29L7.62 352.29L-35.68 327.29L-35.68 277.29zM7.62 702.29L50.92 727.29L50.92 777.29L7.62 802.29L-35.68 777.29L-35.68 727.29zM50.92 927.29L94.23 952.29L94.23 1002.29L50.92 1027.29L7.62 1002.29L7.62 952.29zM7.62 1002.29L50.92 1027.29L50.92 1077.29L7.62 1102.29L-35.68 1077.29L-35.68 1027.29zM137.53 27.29L180.83 52.29L180.83 102.29L137.53 127.29L94.23 102.29L94.23 52.29zM137.53 177.29L180.83 202.29L180.83 252.29L137.53 277.29L94.23 252.29L94.23 202.29zM94.23 252.29L137.53 277.29L137.53 327.29L94.23 352.29L50.92 327.29L50.92 277.29zM137.53 327.29L180.83 352.29L180.83 402.29L137.53 427.29L94.23 402.29L94.23 352.29zM137.53 477.29L180.83 502.29L180.83 552.29L137.53 577.29L94.23 552.29L94.23 502.29zM94.23 552.29L137.53 577.29L137.53 627.29L94.23 652.29L50.92 627.29L50.92 577.29zM137.53 627.29L180.83 652.29L180.83 702.29L137.53 727.29L94.23 702.29L94.23 652.29zM137.53 777.29L180.83 802.29L180.83 852.29L137.53 877.29L94.23 852.29L94.23 802.29zM94.23 852.29L137.53 877.29L137.53 927.29L94.23 952.29L50.92 927.29L50.92 877.29zM137.53 927.29L180.83 952.29L180.83 1002.29L137.53 1027.29L94.23 1002.29L94.23 952.29zM180.83 -47.71L224.13 -22.71L224.13 27.29L180.83 52.29L137.53 27.29L137.53 -22.71zM224.13 27.29L267.44 52.29L267.44 102.29L224.13 127.29L180.83 102.29L180.83 52.29zM180.83 102.29L224.13 127.29L224.13 177.29L180.83 202.29L137.53 177.29L137.53 127.29zM224.13 327.29L267.44 352.29L267.44 402.29L224.13 427.29L180.83 402.29L180.83 352.29zM180.83 402.29L224.13 427.29L224.13 477.29L180.83 502.29L137.53 477.29L137.53 427.29zM224.13 777.29L267.44 802.29L267.44 852.29L224.13 877.29L180.83 852.29L180.83 802.29zM180.83 852.29L224.13 877.29L224.13 927.29L180.83 952.29L137.53 927.29L137.53 877.29zM224.13 927.29L267.44 952.29L267.44 1002.29L224.13 1027.29L180.83 1002.29L180.83 952.29zM267.44 -47.71L310.74 -22.71L310.74 27.29L267.44 52.29L224.13 27.29L224.13 -22.71zM310.74 27.29L354.04 52.29L354.04 102.29L310.74 127.29L267.44 102.29L267.44 52.29zM310.74 177.29L354.04 202.29L354.04 252.29L310.74 277.29L267.44 252.29L267.44 202.29zM310.74 477.29L354.04 502.29L354.04 552.29L310.74 577.29L267.44 552.29L267.44 502.29zM310.74 927.29L354.04 952.29L354.04 1002.29L310.74 1027.29L267.44 1002.29L267.44 952.29zM267.44 1002.29L310.74 1027.29L310.74 1077.29L267.44 1102.29L224.13 1077.29L224.13 1027.29zM397.34 27.29L440.65 52.29L440.65 102.29L397.34 127.29L354.04 102.29L354.04 52.29zM354.04 102.29L397.34 127.29L397.34 177.29L354.04 202.29L310.74 177.29L310.74 127.29zM397.34 327.29L440.65 352.29L440.65 402.29L397.34 427.29L354.04 402.29L354.04 352.29zM354.04 402.29L397.34 427.29L397.34 477.29L354.04 502.29L310.74 477.29L310.74 427.29zM397.34 477.29L440.65 502.29L440.65 552.29L397.34 577.29L354.04 552.29L354.04 502.29zM397.34 777.29L440.65 802.29L440.65 852.29L397.34 877.29L354.04 852.29L354.04 802.29zM397.34 927.29L440.65 952.29L440.65 1002.29L397.34 1027.29L354.04 1002.29L354.04 952.29zM354.04 1002.29L397.34 1027.29L397.34 1077.29L354.04 1102.29L310.74 1077.29L310.74 1027.29zM483.95 177.29L527.25 202.29L527.25 252.29L483.95 277.29L440.65 252.29L440.65 202.29zM483.95 477.29L527.25 502.29L527.25 552.29L483.95 577.29L440.65 552.29L440.65 502.29zM440.65 552.29L483.95 577.29L483.95 627.29L440.65 652.29L397.34 627.29L397.34 577.29zM440.65 702.29L483.95 727.29L483.95 777.29L440.65 802.29L397.34 777.29L397.34 727.29zM483.95 777.29L527.25 802.29L527.25 852.29L483.95 877.29L440.65 852.29L440.65 802.29zM570.55 27.29L613.86 52.29L613.86 102.29L570.55 127.29L527.25 102.29L527.25 52.29zM570.55 177.29L613.86 202.29L613.86 252.29L570.55 277.29L527.25 252.29L527.25 202.29zM527.25 252.29L570.55 277.29L570.55 327.29L527.25 352.29L483.95 327.29L483.95 277.29zM570.55 477.29L613.86 502.29L613.86 552.29L570.55 577.29L527.25 552.29L527.25 502.29zM527.25 552.29L570.55 577.29L570.55 627.29L527.25 652.29L483.95 627.29L483.95 577.29zM570.55 927.29L613.86 952.29L613.86 1002.29L570.55 1027.29L527.25 1002.29L527.25 952.29zM527.25 1002.29L570.55 1027.29L570.55 1077.29L527.25 1102.29L483.95 1077.29L483.95 1027.29zM613.86 -47.71L657.16 -22.71L657.16 27.29L613.86 52.29L570.55 27.29L570.55 -22.71zM613.86 252.29L657.16 277.29L657.16 327.29L613.86 352.29L570.55 327.29L570.55 277.29zM657.16 627.29L700.46 652.29L700.46 702.29L657.16 727.29L613.86 702.29L613.86 652.29zM657.16 777.29L700.46 802.29L700.46 852.29L657.16 877.29L613.86 852.29L613.86 802.29zM657.16 927.29L700.46 952.29L700.46 1002.29L657.16 1027.29L613.86 1002.29L613.86 952.29zM700.46 -47.71L743.76 -22.71L743.76 27.29L700.46 52.29L657.16 27.29L657.16 -22.71zM743.76 177.29L787.07 202.29L787.07 252.29L743.76 277.29L700.46 252.29L700.46 202.29zM743.76 777.29L787.07 802.29L787.07 852.29L743.76 877.29L700.46 852.29L700.46 802.29zM743.76 927.29L787.07 952.29L787.07 1002.29L743.76 1027.29L700.46 1002.29L700.46 952.29zM830.37 27.29L873.67 52.29L873.67 102.29L830.37 127.29L787.07 102.29L787.07 52.29zM830.37 177.29L873.67 202.29L873.67 252.29L830.37 277.29L787.07 252.29L787.07 202.29zM787.07 402.29L830.37 427.29L830.37 477.29L787.07 502.29L743.76 477.29L743.76 427.29zM830.37 477.29L873.67 502.29L873.67 552.29L830.37 577.29L787.07 552.29L787.07 502.29zM787.07 552.29L830.37 577.29L830.37 627.29L787.07 652.29L743.76 627.29L743.76 577.29zM830.37 777.29L873.67 802.29L873.67 852.29L830.37 877.29L787.07 852.29L787.07 802.29zM787.07 852.29L830.37 877.29L830.37 927.29L787.07 952.29L743.76 927.29L743.76 877.29zM787.07 1002.29L830.37 1027.29L830.37 1077.29L787.07 1102.29L743.76 1077.29L743.76 1027.29zM873.67 -47.71L916.97 -22.71L916.97 27.29L873.67 52.29L830.37 27.29L830.37 -22.71zM916.97 177.29L960.28 202.29L960.28 252.29L916.97 277.29L873.67 252.29L873.67 202.29zM916.97 327.29L960.28 352.29L960.28 402.29L916.97 427.29L873.67 402.29L873.67 352.29zM916.97 477.29L960.28 502.29L960.28 552.29L916.97 577.29L873.67 552.29L873.67 502.29zM873.67 552.29L916.97 577.29L916.97 627.29L873.67 652.29L830.37 627.29L830.37 577.29zM916.97 627.29L960.28 652.29L960.28 702.29L916.97 727.29L873.67 702.29L873.67 652.29zM873.67 702.29L916.97 727.29L916.97 777.29L873.67 802.29L830.37 777.29L830.37 727.29zM873.67 852.29L916.97 877.29L916.97 927.29L873.67 952.29L830.37 927.29L830.37 877.29zM916.97 927.29L960.28 952.29L960.28 1002.29L916.97 1027.29L873.67 1002.29L873.67 952.29zM873.67 1002.29L916.97 1027.29L916.97 1077.29L873.67 1102.29L830.37 1077.29L830.37 1027.29zM960.28 102.29L1003.58 127.29L1003.58 177.29L960.28 202.29L916.97 177.29L916.97 127.29zM1003.58 177.29L1046.88 202.29L1046.88 252.29L1003.58 277.29L960.28 252.29L960.28 202.29zM960.28 252.29L1003.58 277.29L1003.58 327.29L960.28 352.29L916.97 327.29L916.97 277.29zM1003.58 327.29L1046.88 352.29L1046.88 402.29L1003.58 427.29L960.28 402.29L960.28 352.29zM960.28 402.29L1003.58 427.29L1003.58 477.29L960.28 502.29L916.97 477.29L916.97 427.29zM1003.58 477.29L1046.88 502.29L1046.88 552.29L1003.58 577.29L960.28 552.29L960.28 502.29zM960.28 552.29L1003.58 577.29L1003.58 627.29L960.28 652.29L916.97 627.29L916.97 577.29zM1003.58 627.29L1046.88 652.29L1046.88 702.29L1003.58 727.29L960.28 702.29L960.28 652.29zM960.28 702.29L1003.58 727.29L1003.58 777.29L960.28 802.29L916.97 777.29L916.97 727.29zM1003.58 777.29L1046.88 802.29L1046.88 852.29L1003.58 877.29L960.28 852.29L960.28 802.29zM1046.88 102.29L1090.18 127.29L1090.18 177.29L1046.88 202.29L1003.58 177.29L1003.58 127.29zM1046.88 402.29L1090.18 427.29L1090.18 477.29L1046.88 502.29L1003.58 477.29L1003.58 427.29zM1046.88 552.29L1090.18 577.29L1090.18 627.29L1046.88 652.29L1003.58 627.29L1003.58 577.29zM1133.48 102.29L1176.79 127.29L1176.79 177.29L1133.48 202.29L1090.18 177.29L1090.18 127.29zM1176.79 477.29L1220.09 502.29L1220.09 552.29L1176.79 577.29L1133.48 552.29L1133.48 502.29zM1176.79 627.29L1220.09 652.29L1220.09 702.29L1176.79 727.29L1133.48 702.29L1133.48 652.29zM1133.48 702.29L1176.79 727.29L1176.79 777.29L1133.48 802.29L1090.18 777.29L1090.18 727.29zM1176.79 927.29L1220.09 952.29L1220.09 1002.29L1176.79 1027.29L1133.48 1002.29L1133.48 952.29zM1133.48 1002.29L1176.79 1027.29L1176.79 1077.29L1133.48 1102.29L1090.18 1077.29L1090.18 1027.29zM1220.09 -47.71L1263.39 -22.71L1263.39 27.29L1220.09 52.29L1176.79 27.29L1176.79 -22.71zM1220.09 102.29L1263.39 127.29L1263.39 177.29L1220.09 202.29L1176.79 177.29L1176.79 127.29zM1263.39 177.29L1306.69 202.29L1306.69 252.29L1263.39 277.29L1220.09 252.29L1220.09 202.29zM1263.39 327.29L1306.69 352.29L1306.69 402.29L1263.39 427.29L1220.09 402.29L1220.09 352.29zM1220.09 402.29L1263.39 427.29L1263.39 477.29L1220.09 502.29L1176.79 477.29L1176.79 427.29zM1263.39 477.29L1306.69 502.29L1306.69 552.29L1263.39 577.29L1220.09 552.29L1220.09 502.29zM1220.09 552.29L1263.39 577.29L1263.39 627.29L1220.09 652.29L1176.79 627.29L1176.79 577.29zM1263.39 627.29L1306.69 652.29L1306.69 702.29L1263.39 727.29L1220.09 702.29L1220.09 652.29zM1263.39 927.29L1306.69 952.29L1306.69 1002.29L1263.39 1027.29L1220.09 1002.29L1220.09 952.29zM1350 27.29L1393.3 52.29L1393.3 102.29L1350 127.29L1306.69 102.29L1306.69 52.29zM1306.69 402.29L1350 427.29L1350 477.29L1306.69 502.29L1263.39 477.29L1263.39 427.29zM1306.69 552.29L1350 577.29L1350 627.29L1306.69 652.29L1263.39 627.29L1263.39 577.29zM1306.69 702.29L1350 727.29L1350 777.29L1306.69 802.29L1263.39 777.29L1263.39 727.29zM1350 777.29L1393.3 802.29L1393.3 852.29L1350 877.29L1306.69 852.29L1306.69 802.29zM1350 927.29L1393.3 952.29L1393.3 1002.29L1350 1027.29L1306.69 1002.29L1306.69 952.29zM1306.69 1002.29L1350 1027.29L1350 1077.29L1306.69 1102.29L1263.39 1077.29L1263.39 1027.29zM1436.6 27.29L1479.9 52.29L1479.9 102.29L1436.6 127.29L1393.3 102.29L1393.3 52.29zM1436.6 177.29L1479.9 202.29L1479.9 252.29L1436.6 277.29L1393.3 252.29L1393.3 202.29zM1393.3 402.29L1436.6 427.29L1436.6 477.29L1393.3 502.29L1350 477.29L1350 427.29zM1436.6 627.29L1479.9 652.29L1479.9 702.29L1436.6 727.29L1393.3 702.29L1393.3 652.29zM1393.3 702.29L1436.6 727.29L1436.6 777.29L1393.3 802.29L1350 777.29L1350 727.29zM1436.6 777.29L1479.9 802.29L1479.9 852.29L1436.6 877.29L1393.3 852.29L1393.3 802.29zM1393.3 852.29L1436.6 877.29L1436.6 927.29L1393.3 952.29L1350 927.29L1350 877.29zM1523.21 327.29L1566.51 352.29L1566.51 402.29L1523.21 427.29L1479.9 402.29L1479.9 352.29zM1479.9 402.29L1523.21 427.29L1523.21 477.29L1479.9 502.29L1436.6 477.29L1436.6 427.29zM1523.21 627.29L1566.51 652.29L1566.51 702.29L1523.21 727.29L1479.9 702.29L1479.9 652.29zM1523.21 777.29L1566.51 802.29L1566.51 852.29L1523.21 877.29L1479.9 852.29L1479.9 802.29zM1609.81 477.29L1653.12 502.29L1653.12 552.29L1609.81 577.29L1566.51 552.29L1566.51 502.29zM1566.51 552.29L1609.81 577.29L1609.81 627.29L1566.51 652.29L1523.21 627.29L1523.21 577.29zM1609.81 627.29L1653.12 652.29L1653.12 702.29L1609.81 727.29L1566.51 702.29L1566.51 652.29zM1609.81 777.29L1653.12 802.29L1653.12 852.29L1609.81 877.29L1566.51 852.29L1566.51 802.29zM1566.51 852.29L1609.81 877.29L1609.81 927.29L1566.51 952.29L1523.21 927.29L1523.21 877.29zM1609.81 927.29L1653.12 952.29L1653.12 1002.29L1609.81 1027.29L1566.51 1002.29L1566.51 952.29zM1653.12 -47.71L1696.42 -22.71L1696.42 27.29L1653.12 52.29L1609.81 27.29L1609.81 -22.71zM1696.42 27.29L1739.72 52.29L1739.72 102.29L1696.42 127.29L1653.12 102.29L1653.12 52.29zM1653.12 102.29L1696.42 127.29L1696.42 177.29L1653.12 202.29L1609.81 177.29L1609.81 127.29zM1696.42 177.29L1739.72 202.29L1739.72 252.29L1696.42 277.29L1653.12 252.29L1653.12 202.29zM1653.12 402.29L1696.42 427.29L1696.42 477.29L1653.12 502.29L1609.81 477.29L1609.81 427.29zM1696.42 477.29L1739.72 502.29L1739.72 552.29L1696.42 577.29L1653.12 552.29L1653.12 502.29zM1653.12 702.29L1696.42 727.29L1696.42 777.29L1653.12 802.29L1609.81 777.29L1609.81 727.29zM1696.42 777.29L1739.72 802.29L1739.72 852.29L1696.42 877.29L1653.12 852.29L1653.12 802.29zM1653.12 852.29L1696.42 877.29L1696.42 927.29L1653.12 952.29L1609.81 927.29L1609.81 877.29zM1739.72 -47.71L1783.02 -22.71L1783.02 27.29L1739.72 52.29L1696.42 27.29L1696.42 -22.71zM1739.72 102.29L1783.02 127.29L1783.02 177.29L1739.72 202.29L1696.42 177.29L1696.42 127.29zM1783.02 177.29L1826.33 202.29L1826.33 252.29L1783.02 277.29L1739.72 252.29L1739.72 202.29zM1783.02 327.29L1826.33 352.29L1826.33 402.29L1783.02 427.29L1739.72 402.29L1739.72 352.29zM1739.72 402.29L1783.02 427.29L1783.02 477.29L1739.72 502.29L1696.42 477.29L1696.42 427.29zM1783.02 477.29L1826.33 502.29L1826.33 552.29L1783.02 577.29L1739.72 552.29L1739.72 502.29zM1739.72 552.29L1783.02 577.29L1783.02 627.29L1739.72 652.29L1696.42 627.29L1696.42 577.29zM1739.72 852.29L1783.02 877.29L1783.02 927.29L1739.72 952.29L1696.42 927.29L1696.42 877.29zM1783.02 927.29L1826.33 952.29L1826.33 1002.29L1783.02 1027.29L1739.72 1002.29L1739.72 952.29zM1739.72 1002.29L1783.02 1027.29L1783.02 1077.29L1739.72 1102.29L1696.42 1077.29L1696.42 1027.29zM1869.63 177.29L1912.93 202.29L1912.93 252.29L1869.63 277.29L1826.33 252.29L1826.33 202.29zM1869.63 477.29L1912.93 502.29L1912.93 552.29L1869.63 577.29L1826.33 552.29L1826.33 502.29zM1869.63 627.29L1912.93 652.29L1912.93 702.29L1869.63 727.29L1826.33 702.29L1826.33 652.29zM1869.63 777.29L1912.93 802.29L1912.93 852.29L1869.63 877.29L1826.33 852.29L1826.33 802.29zM1826.33 852.29L1869.63 877.29L1869.63 927.29L1826.33 952.29L1783.02 927.29L1783.02 877.29zM1912.93 252.29L1956.23 277.29L1956.23 327.29L1912.93 352.29L1869.63 327.29L1869.63 277.29zM1956.23 327.29L1999.54 352.29L1999.54 402.29L1956.23 427.29L1912.93 402.29L1912.93 352.29zM1912.93 402.29L1956.23 427.29L1956.23 477.29L1912.93 502.29L1869.63 477.29L1869.63 427.29zM1956.23 477.29L1999.54 502.29L1999.54 552.29L1956.23 577.29L1912.93 552.29L1912.93 502.29zM1956.23 627.29L1999.54 652.29L1999.54 702.29L1956.23 727.29L1912.93 702.29L1912.93 652.29zM1912.93 702.29L1956.23 727.29L1956.23 777.29L1912.93 802.29L1869.63 777.29L1869.63 727.29zM1912.93 852.29L1956.23 877.29L1956.23 927.29L1912.93 952.29L1869.63 927.29L1869.63 877.29zM1956.23 927.29L1999.54 952.29L1999.54 1002.29L1956.23 1027.29L1912.93 1002.29L1912.93 952.29z" stroke="rgba(47, 57, 67, 0.93)" stroke-width="2"></path></g><defs><mask id="SvgjsMask2458"><rect width="1920" height="1080" fill="#ffffff"></rect></mask><radialGradient cx="50%" cy="50%" r="1101.45" gradientUnits="userSpaceOnUse" id="SvgjsRadialGradient2459"><stop stop-color="rgba(163, 21, 21, 0.73)" offset="0"></stop><stop stop-color="rgba(48, 38, 38, 1)" offset="0.25"></stop><stop stop-color="rgba(85, 33, 33, 1)" offset="1"></stop></radialGradient></defs></svg>