<svg xmlns="http://www.w3.org/2000/svg" version="1.1" xmlns:xlink="http://www.w3.org/1999/xlink" xmlns:svgjs="http://svgjs.dev/svgjs" width="1920" height="1080" preserveAspectRatio="none" viewBox="0 0 1920 1080"><g mask="url(&quot;#SvgjsMask1257&quot;)" fill="none"><rect width="1920" height="1080" x="0" y="0" fill="url(&quot;#SvgjsRadialGradient1258&quot;)"></rect><use xlink:href="#SvgjsG1264" transform="translate(0, 0)" fill="rgba(50, 104, 205, 1)"></use><use xlink:href="#SvgjsG1264" transform="translate(0, 625)" fill="rgba(50, 104, 205, 1)"></use><use xlink:href="#SvgjsG1264" transform="translate(625, 0)" fill="#0f457b"></use><use xlink:href="#SvgjsG1264" transform="translate(625, 625)" fill="#0f457b"></use><use xlink:href="#SvgjsG1264" transform="translate(1250, 0)" fill="rgba(50, 104, 205, 1)"></use><use xlink:href="#SvgjsG1264" transform="translate(1250, 625)" fill="rgba(50, 104, 205, 1)"></use><use xlink:href="#SvgjsG1264" transform="translate(1875, 0)" fill="rgba(50, 104, 205, 1)"></use><use xlink:href="#SvgjsG1264" transform="translate(1875, 625)" fill="#0f457b"></use></g><defs><mask id="SvgjsMask1257"><rect width="1920" height="1080" fill="#ffffff"></rect></mask><radialGradient cx="50%" cy="50%" r="1101.45" gradientUnits="userSpaceOnUse" id="SvgjsRadialGradient1258"><stop stop-color="rgba(14, 42, 71, 1)" offset="0.83"></stop><stop stop-color="rgba(0, 69, 158, 1)" offset="1"></stop></radialGradient><g id="SvgjsG1259"><path d="M6.498 9.304L12.139 3.663l1.565 1.566-5.641 5.641z"></path><path d="M6.8 0.457h2.541v8.028H6.8z"></path><path d="M8.072 10.876L2.429 5.238l1.563-1.566L9.636 9.313zM1.2 13.277h13.733v2.266H1.2z"></path><path d="M0.733 9.143h2.267v6.4h-2.267z m12.267 0h2.267v6.4h-2.267z"></path></g><g id="SvgjsG1260"><path d="M11.986 8.245a46.749 46.749 0 0 1-0.521-0.411c-0.146-0.116-0.293-0.233-0.44-0.348-0.88-0.688-1.797-1.316-2.816-1.407A2.815 2.815 0 0 0 7.954 6.067c-0.086 0-0.171 0.011-0.255 0.018-1.022 0.093-1.942 0.717-2.826 1.408l0.093 0.073c0.108 0.085 0.213 0.168 0.32 0.252C6.165 7.137 7.021 6.576 7.954 6.576c0.93 0 1.784 0.558 2.66 1.236a35.098 35.098 0 0 1 0.535 0.421c0.142 0.113 0.283 0.226 0.426 0.338C12.532 9.32 13.531 10 14.658 10c0.437 0 0.854-0.104 1.257-0.273v-0.557c-0.409 0.197-0.825 0.32-1.257 0.32-0.934 0-1.792-0.563-2.672-1.245z"></path><path d="M11.574 7.496c0.029 0.023 0.059 0.046 0.088 0.07 0.109 0.087 0.216 0.17 0.325 0.256 0.318-0.246 0.635-0.476 0.952-0.67v1.37c0.17 0.111 0.34 0.214 0.51 0.301V6.878c0.315-0.147 0.634-0.248 0.96-0.283v2.537c0.078 0.01 0.157 0.018 0.237 0.018 0.091 0 0.183-0.009 0.273-0.021V6.592c0.34 0.037 0.67 0.144 0.996 0.3V6.336C15.514 6.17 15.099 6.067 14.664 6.067c-1.128 0-2.13 0.68-3.09 1.429z m-7.248 1.08c-0.034-0.027-0.068-0.053-0.102-0.08-0.104-0.083-0.207-0.162-0.31-0.245-0.877 0.678-1.733 1.238-2.665 1.238C0.82 9.49 0.407 9.36 0 9.152v0.562C0.401 9.891 0.815 10 1.249 10c1.124 0 2.122-0.677 3.077-1.423z"></path><path d="M0.989 9.133c0.084 0.011 0.17 0.019 0.254 0.02 0.086 0 0.171-0.008 0.256-0.02V6.592c0.329 0.035 0.65 0.136 0.967 0.285-0.002 0.012-0.007 0.023-0.007 0.036v1.903a5.818 5.818 0 0 0 0.51-0.303V7.152c0.487 0.3 0.971 0.684 1.467 1.08C5.525 9.101 6.652 10 7.948 10c1.123 0 2.121-0.675 3.078-1.42l-0.106-0.084c-0.103-0.082-0.205-0.161-0.306-0.242-0.313 0.242-0.622 0.466-0.934 0.658V7.564A5.816 5.816 0 0 0 9.17 7.261v1.893c0 0.01 0.004 0.019 0.005 0.029-0.316 0.149-0.637 0.252-0.965 0.288V6.937a1.97 1.97 0 0 0-0.267-0.02c-0.082 0-0.163 0.008-0.243 0.017v2.541c-0.33-0.035-0.652-0.136-0.969-0.283 0.002-0.013 0.006-0.024 0.006-0.039V7.248a5.629 5.629 0 0 0-0.51 0.302v1.368c-0.49-0.299-0.976-0.686-1.474-1.083C3.666 6.966 2.539 6.067 1.243 6.067c-0.432 0-0.844 0.096-1.243 0.251v0.55c0.324-0.144 0.652-0.244 0.989-0.278V9.133z"></path></g><g id="SvgjsG1261"><path d="M7.45 12.652S6.4 11.121 3.725 11.121C1.274 11.121 0 11.833 0 11.833V1.937s1.274-0.712 3.725-0.729C6.4 1.19 7.45 2.756 7.45 2.756V12.652z m1.087 0s1.05-1.531 3.725-1.531c2.451 0 3.725 0.712 3.725 0.713V1.937s-1.274-0.712-3.725-0.729c-2.675-0.017-3.725 1.548-3.725 1.548v9.896z"></path><path d="M8.012 15.733S6.4 13.411 3.725 13.411c-2.451 0-3.725 0.712-3.725 0.712v-1.186s1.274-0.712 3.725-0.729c2.675-0.018 4.287 2.34 4.287 2.34V15.733z m0 0s1.612-2.323 4.287-2.323c2.451 0 3.725 0.712 3.725 0.712v-1.185s-1.274-0.712-3.725-0.729c-2.675-0.019-4.287 2.339-4.287 2.339v1.185z"></path></g><g id="SvgjsG1263"><path d="M11.974 14.95h-0.243c-0.142-0.162-0.195-0.364-0.152-0.614 0.071-0.413 0.364-0.754 0.504-0.803l-0.002-0.005a0.525 0.525 0 0 0 0.346-0.491l0.01-10.776c0-0.289-0.234-0.525-0.517-0.527 0 0-2.157-0.002-2.749-0.006l0.003-1.204c0-0.213-0.123-0.403-0.318-0.485a0.517 0.517 0 0 0-0.564 0.11L4.684 3.773C4.051 4.41 3.55 5.613 3.549 6.518L3.52 14.057c-0.002 1.054 0.844 1.918 1.892 1.923l6.56 0.02c0.285 0 0.518-0.235 0.518-0.521v-0.002c0-0.291-0.229-0.525-0.516-0.526M11.398 2.784c0 0.899-0.008 8.829-0.01 9.73h-5.912l3.702-3.137-0.007-6.597c0.336 0.002 1.916 0.004 2.227 0.004M4.557 14.06s0.002-0.434 0.002-0.498H10.75c-0.089 0.19-0.16 0.391-0.194 0.594-0.049 0.28-0.024 0.542 0.038 0.79l-5.179-0.016c-0.474 0-0.858-0.389-0.858-0.87"></path></g><g id="SvgjsG1262"><path d="M13.031 12.687V1.875H9.957L9.97 0.071C9.957 0.078 4.189 2.651 4.189 2.651 3.256 3.097 2.919 3.747 2.919 4.632V13.347c0 1.389 1.116 2.528 2.401 2.528h7.737V14.275c-0.948-0.116-0.948-1.469-0.026-1.588z m-7.749 1.422c-0.848-0.005-0.844-1.194 0-1.194h5.399c-0.375 0.278-0.351 0.936 0.051 1.195H5.282z m6.021-2.884H6.577l3.38-1.524V3.628h1.347v7.597h-0.001z" fill-rule="evenodd"></path></g><g id="SvgjsG1264"><use xlink:href="#SvgjsG1259" transform="translate(0, 0) scale(2.5)" fill="rgba(50, 104, 205, 1)"></use><use xlink:href="#SvgjsG1259" transform="translate(0, 62.5) scale(2.5)" fill="rgba(50, 104, 205, 1)"></use><use xlink:href="#SvgjsG1260" transform="translate(0, 125) scale(2.5)" fill="rgba(50, 104, 205, 1)"></use><use xlink:href="#SvgjsG1261" transform="translate(0, 187.5) scale(2.5)" fill="#0f457b"></use><use xlink:href="#SvgjsG1260" transform="translate(0, 250) scale(2.5)" fill="rgba(50, 104, 205, 1)"></use><use xlink:href="#SvgjsG1260" transform="translate(0, 312.5) scale(2.5)" fill="rgba(50, 104, 205, 1)"></use><use xlink:href="#SvgjsG1262" transform="translate(0, 375) scale(2.5)" fill="#0f457b"></use><use xlink:href="#SvgjsG1259" transform="translate(0, 437.5) scale(2.5)" fill="#0f457b"></use><use xlink:href="#SvgjsG1260" transform="translate(0, 500) scale(2.5)" fill="#0f457b"></use><use xlink:href="#SvgjsG1260" transform="translate(0, 562.5) scale(2.5)" fill="#0f457b"></use><use xlink:href="#SvgjsG1261" transform="translate(62.5, 0) scale(2.5)" fill="#0f457b"></use><use xlink:href="#SvgjsG1261" transform="translate(62.5, 62.5) scale(2.5)" fill="rgba(50, 104, 205, 1)"></use><use xlink:href="#SvgjsG1261" transform="translate(62.5, 125) scale(2.5)" fill="rgba(50, 104, 205, 1)"></use><use xlink:href="#SvgjsG1262" transform="translate(62.5, 187.5) scale(2.5)" fill="rgba(50, 104, 205, 1)"></use><use xlink:href="#SvgjsG1261" transform="translate(62.5, 250) scale(2.5)" fill="rgba(50, 104, 205, 1)"></use><use xlink:href="#SvgjsG1260" transform="translate(62.5, 312.5) scale(2.5)" fill="rgba(50, 104, 205, 1)"></use><use xlink:href="#SvgjsG1259" transform="translate(62.5, 375) scale(2.5)" fill="#0f457b"></use><use xlink:href="#SvgjsG1262" transform="translate(62.5, 437.5) scale(2.5)" fill="rgba(50, 104, 205, 1)"></use><use xlink:href="#SvgjsG1259" transform="translate(62.5, 500) scale(2.5)" fill="rgba(50, 104, 205, 1)"></use><use xlink:href="#SvgjsG1263" transform="translate(62.5, 562.5) scale(2.5)" fill="rgba(50, 104, 205, 1)"></use><use xlink:href="#SvgjsG1262" transform="translate(125, 0) scale(2.5)" fill="rgba(50, 104, 205, 1)"></use><use xlink:href="#SvgjsG1262" transform="translate(125, 62.5) scale(2.5)" fill="#0f457b"></use><use xlink:href="#SvgjsG1261" transform="translate(125, 125) scale(2.5)" fill="#0f457b"></use><use xlink:href="#SvgjsG1261" transform="translate(125, 187.5) scale(2.5)" fill="#0f457b"></use><use xlink:href="#SvgjsG1261" transform="translate(125, 250) scale(2.5)" fill="rgba(50, 104, 205, 1)"></use><use xlink:href="#SvgjsG1262" transform="translate(125, 312.5) scale(2.5)" fill="#0f457b"></use><use xlink:href="#SvgjsG1259" transform="translate(125, 375) scale(2.5)" fill="#0f457b"></use><use xlink:href="#SvgjsG1260" transform="translate(125, 437.5) scale(2.5)" fill="#0f457b"></use><use xlink:href="#SvgjsG1263" transform="translate(125, 500) scale(2.5)" fill="rgba(50, 104, 205, 1)"></use><use xlink:href="#SvgjsG1260" transform="translate(125, 562.5) scale(2.5)" fill="rgba(50, 104, 205, 1)"></use><use xlink:href="#SvgjsG1259" transform="translate(187.5, 0) scale(2.5)" fill="rgba(50, 104, 205, 1)"></use><use xlink:href="#SvgjsG1261" transform="translate(187.5, 62.5) scale(2.5)" fill="#0f457b"></use><use xlink:href="#SvgjsG1263" transform="translate(187.5, 125) scale(2.5)" fill="rgba(50, 104, 205, 1)"></use><use xlink:href="#SvgjsG1259" transform="translate(187.5, 187.5) scale(2.5)" fill="#0f457b"></use><use xlink:href="#SvgjsG1259" transform="translate(187.5, 250) scale(2.5)" fill="rgba(50, 104, 205, 1)"></use><use xlink:href="#SvgjsG1261" transform="translate(187.5, 312.5) scale(2.5)" fill="#0f457b"></use><use xlink:href="#SvgjsG1263" transform="translate(187.5, 375) scale(2.5)" fill="rgba(50, 104, 205, 1)"></use><use xlink:href="#SvgjsG1259" transform="translate(187.5, 437.5) scale(2.5)" fill="#0f457b"></use><use xlink:href="#SvgjsG1263" transform="translate(187.5, 500) scale(2.5)" fill="#0f457b"></use><use xlink:href="#SvgjsG1259" transform="translate(187.5, 562.5) scale(2.5)" fill="rgba(50, 104, 205, 1)"></use><use xlink:href="#SvgjsG1263" transform="translate(250, 0) scale(2.5)" fill="rgba(50, 104, 205, 1)"></use><use xlink:href="#SvgjsG1260" transform="translate(250, 62.5) scale(2.5)" fill="rgba(50, 104, 205, 1)"></use><use xlink:href="#SvgjsG1261" transform="translate(250, 125) scale(2.5)" fill="rgba(50, 104, 205, 1)"></use><use xlink:href="#SvgjsG1261" transform="translate(250, 187.5) scale(2.5)" fill="#0f457b"></use><use xlink:href="#SvgjsG1261" transform="translate(250, 250) scale(2.5)" fill="rgba(50, 104, 205, 1)"></use><use xlink:href="#SvgjsG1259" transform="translate(250, 312.5) scale(2.5)" fill="rgba(50, 104, 205, 1)"></use><use xlink:href="#SvgjsG1259" transform="translate(250, 375) scale(2.5)" fill="#0f457b"></use><use xlink:href="#SvgjsG1260" transform="translate(250, 437.5) scale(2.5)" fill="#0f457b"></use><use xlink:href="#SvgjsG1262" transform="translate(250, 500) scale(2.5)" fill="rgba(50, 104, 205, 1)"></use><use xlink:href="#SvgjsG1259" transform="translate(250, 562.5) scale(2.5)" fill="#0f457b"></use><use xlink:href="#SvgjsG1263" transform="translate(312.5, 0) scale(2.5)" fill="#0f457b"></use><use xlink:href="#SvgjsG1262" transform="translate(312.5, 62.5) scale(2.5)" fill="#0f457b"></use><use xlink:href="#SvgjsG1259" transform="translate(312.5, 125) scale(2.5)" fill="rgba(50, 104, 205, 1)"></use><use xlink:href="#SvgjsG1261" transform="translate(312.5, 187.5) scale(2.5)" fill="#0f457b"></use><use xlink:href="#SvgjsG1263" transform="translate(312.5, 250) scale(2.5)" fill="rgba(50, 104, 205, 1)"></use><use xlink:href="#SvgjsG1259" transform="translate(312.5, 312.5) scale(2.5)" fill="rgba(50, 104, 205, 1)"></use><use xlink:href="#SvgjsG1261" transform="translate(312.5, 375) scale(2.5)" fill="#0f457b"></use><use xlink:href="#SvgjsG1263" transform="translate(312.5, 437.5) scale(2.5)" fill="rgba(50, 104, 205, 1)"></use><use xlink:href="#SvgjsG1263" transform="translate(312.5, 500) scale(2.5)" fill="#0f457b"></use><use xlink:href="#SvgjsG1259" transform="translate(312.5, 562.5) scale(2.5)" fill="rgba(50, 104, 205, 1)"></use><use xlink:href="#SvgjsG1263" transform="translate(375, 0) scale(2.5)" fill="rgba(50, 104, 205, 1)"></use><use xlink:href="#SvgjsG1261" transform="translate(375, 62.5) scale(2.5)" fill="#0f457b"></use><use xlink:href="#SvgjsG1259" transform="translate(375, 125) scale(2.5)" fill="rgba(50, 104, 205, 1)"></use><use xlink:href="#SvgjsG1260" transform="translate(375, 187.5) scale(2.5)" fill="#0f457b"></use><use xlink:href="#SvgjsG1259" transform="translate(375, 250) scale(2.5)" fill="rgba(50, 104, 205, 1)"></use><use xlink:href="#SvgjsG1263" transform="translate(375, 312.5) scale(2.5)" fill="#0f457b"></use><use xlink:href="#SvgjsG1262" transform="translate(375, 375) scale(2.5)" fill="rgba(50, 104, 205, 1)"></use><use xlink:href="#SvgjsG1262" transform="translate(375, 437.5) scale(2.5)" fill="rgba(50, 104, 205, 1)"></use><use xlink:href="#SvgjsG1260" transform="translate(375, 500) scale(2.5)" fill="rgba(50, 104, 205, 1)"></use><use xlink:href="#SvgjsG1263" transform="translate(375, 562.5) scale(2.5)" fill="rgba(50, 104, 205, 1)"></use><use xlink:href="#SvgjsG1262" transform="translate(437.5, 0) scale(2.5)" fill="rgba(50, 104, 205, 1)"></use><use xlink:href="#SvgjsG1262" transform="translate(437.5, 62.5) scale(2.5)" fill="#0f457b"></use><use xlink:href="#SvgjsG1263" transform="translate(437.5, 125) scale(2.5)" fill="rgba(50, 104, 205, 1)"></use><use xlink:href="#SvgjsG1259" transform="translate(437.5, 187.5) scale(2.5)" fill="rgba(50, 104, 205, 1)"></use><use xlink:href="#SvgjsG1261" transform="translate(437.5, 250) scale(2.5)" fill="rgba(50, 104, 205, 1)"></use><use xlink:href="#SvgjsG1262" transform="translate(437.5, 312.5) scale(2.5)" fill="rgba(50, 104, 205, 1)"></use><use xlink:href="#SvgjsG1263" transform="translate(437.5, 375) scale(2.5)" fill="rgba(50, 104, 205, 1)"></use><use xlink:href="#SvgjsG1261" transform="translate(437.5, 437.5) scale(2.5)" fill="#0f457b"></use><use xlink:href="#SvgjsG1263" transform="translate(437.5, 500) scale(2.5)" fill="#0f457b"></use><use xlink:href="#SvgjsG1263" transform="translate(437.5, 562.5) scale(2.5)" fill="#0f457b"></use><use xlink:href="#SvgjsG1262" transform="translate(500, 0) scale(2.5)" fill="#0f457b"></use><use xlink:href="#SvgjsG1262" transform="translate(500, 62.5) scale(2.5)" fill="#0f457b"></use><use xlink:href="#SvgjsG1263" transform="translate(500, 125) scale(2.5)" fill="rgba(50, 104, 205, 1)"></use><use xlink:href="#SvgjsG1262" transform="translate(500, 187.5) scale(2.5)" fill="rgba(50, 104, 205, 1)"></use><use xlink:href="#SvgjsG1260" transform="translate(500, 250) scale(2.5)" fill="#0f457b"></use><use xlink:href="#SvgjsG1261" transform="translate(500, 312.5) scale(2.5)" fill="#0f457b"></use><use xlink:href="#SvgjsG1260" transform="translate(500, 375) scale(2.5)" fill="rgba(50, 104, 205, 1)"></use><use xlink:href="#SvgjsG1263" transform="translate(500, 437.5) scale(2.5)" fill="#0f457b"></use><use xlink:href="#SvgjsG1260" transform="translate(500, 500) scale(2.5)" fill="#0f457b"></use><use xlink:href="#SvgjsG1260" transform="translate(500, 562.5) scale(2.5)" fill="#0f457b"></use><use xlink:href="#SvgjsG1259" transform="translate(562.5, 0) scale(2.5)" fill="rgba(50, 104, 205, 1)"></use><use xlink:href="#SvgjsG1262" transform="translate(562.5, 62.5) scale(2.5)" fill="rgba(50, 104, 205, 1)"></use><use xlink:href="#SvgjsG1263" transform="translate(562.5, 125) scale(2.5)" fill="#0f457b"></use><use xlink:href="#SvgjsG1260" transform="translate(562.5, 187.5) scale(2.5)" fill="#0f457b"></use><use xlink:href="#SvgjsG1261" transform="translate(562.5, 250) scale(2.5)" fill="rgba(50, 104, 205, 1)"></use><use xlink:href="#SvgjsG1261" transform="translate(562.5, 312.5) scale(2.5)" fill="#0f457b"></use><use xlink:href="#SvgjsG1263" transform="translate(562.5, 375) scale(2.5)" fill="rgba(50, 104, 205, 1)"></use><use xlink:href="#SvgjsG1261" transform="translate(562.5, 437.5) scale(2.5)" fill="#0f457b"></use><use xlink:href="#SvgjsG1260" transform="translate(562.5, 500) scale(2.5)" fill="#0f457b"></use><use xlink:href="#SvgjsG1260" transform="translate(562.5, 562.5) scale(2.5)" fill="#0f457b"></use></g></defs></svg>